<svg width="52" height="52" viewBox="0 0 52 52" fill="none" xmlns="http://www.w3.org/2000/svg">
<circle cx="26" cy="26" r="26" fill="#A6C1E7"/>
<path d="M33.5 17C31.8418 17 30.5 18.3418 30.5 20H29V21.5H33.5V20H32C32 19.1064 32.6064 18.5 33.5 18.5C34.3936 18.5 35 19.1064 35 20V24.5H14.75V26H15.6406L16.7891 31.6953V31.7188C16.9619 32.4922 17.5361 33.1279 18.2891 33.3828L17.75 35H19.25L19.7422 33.5H32.2578L32.75 35H34.25L33.7109 33.3828C34.4961 33.1426 35.1055 32.5127 35.2812 31.7188V31.6953L36.3594 26H37.25V24.5H36.5V20C36.5 18.3418 35.1582 17 33.5 17ZM17.1641 26H34.8594L33.8047 31.4141C33.7168 31.7393 33.4414 32 33.0547 32H19.0156C18.6143 32 18.3418 31.7334 18.2656 31.3906L17.1641 26Z" fill="#0C2E5D"/>
</svg>
