<svg width="48" height="48" viewBox="0 0 48 48" fill="none" xmlns="http://www.w3.org/2000/svg">
<path d="M39 6C35.6836 6 33 8.68359 33 12H30V15H39V12H36C36 10.2129 37.2129 9 39 9C40.7871 9 42 10.2129 42 12V21H1.5V24H3.28125L5.57812 35.3906V35.4375C5.92383 36.9844 7.07227 38.2559 8.57812 38.7656L7.5 42H10.5L11.4844 39H36.5156L37.5 42H40.5L39.4219 38.7656C40.9922 38.2852 42.2109 37.0254 42.5625 35.4375V35.3906L44.7188 24H46.5V21H45V12C45 8.68359 42.3164 6 39 6ZM6.32812 24H41.7188L39.6094 34.8281C39.4336 35.4785 38.8828 36 38.1094 36H10.0312C9.22852 36 8.68359 35.4668 8.53125 34.7812L6.32812 24Z" fill="#563B09"/>
</svg>
