<svg width="40" height="40" viewBox="0 0 40 40" fill="none" xmlns="http://www.w3.org/2000/svg">
<path d="M20 3.75C19.2188 3.75 18.4424 4.01367 17.7734 4.49219L15.7031 5.9375L13.3203 6.25H13.2812L13.2422 6.28906C11.6504 6.64551 10.3955 7.90039 10.0391 9.49219L10 9.53125V9.57031L9.6875 11.9922L8.24219 13.8672L8.20312 13.9062V13.9453C7.3291 15.3418 7.29004 17.1436 8.24219 18.4766L9.72656 20.5469L10.1172 22.6953L6.09375 28.8281L4.80469 30.7422H10.7812L12.2266 34.1016L13.125 36.25L14.4141 34.2969L18.3594 28.3594C19.4189 28.7939 20.6152 28.833 21.6406 28.3594L25.5859 34.2969L26.875 36.25L27.7734 34.1016L29.2188 30.7422H35.1953L33.9062 28.8281L30 22.8906L30.3125 20.5469L31.7578 18.4766L31.7969 18.4375V18.3984C32.6709 17.002 32.71 15.2393 31.7578 13.9062L30.3125 11.8359L29.8438 9.49219H29.8828C29.8779 9.46289 29.8486 9.44336 29.8438 9.41406C29.6191 7.77832 28.3252 6.4502 26.6797 6.25H26.6406L24.2969 5.9375L22.2266 4.49219C21.5576 4.01367 20.7812 3.75 20 3.75ZM20 6.28906C20.2881 6.28906 20.5713 6.37695 20.7812 6.52344L23.0078 8.125L23.2812 8.32031L23.5938 8.35938L26.3281 8.75H26.3672C26.9287 8.81348 27.3193 9.2041 27.3828 9.76562V9.84375L27.8906 12.6172L27.9297 12.8906L28.125 13.125L29.7266 15.3516C30.0244 15.7666 30.0635 16.4697 29.6875 17.0703L27.9297 19.5312L27.8906 19.8438L27.5 22.5781V22.6172C27.4756 22.8223 27.4072 23.0127 27.3047 23.1641L27.2266 23.2031V23.2422C27.0459 23.457 26.7969 23.5986 26.4844 23.6328H26.4062L23.5547 24.1406L23.2422 24.1797L23.0078 24.375L20.7812 25.9766C20.3662 26.2744 19.624 26.3135 19.0234 25.9375L16.9922 24.375L16.7578 24.1797L16.4062 24.1406L13.6719 23.75H13.6328C13.2471 23.7061 12.9492 23.5059 12.7734 23.2031C12.6953 23.0664 12.6367 22.9053 12.6172 22.7344V22.6562L12.1094 19.8047L12.0703 19.4922L11.875 19.2578L10.2734 17.0312C9.97559 16.6162 9.93652 15.874 10.3125 15.2734L11.875 13.2422L12.0703 13.0078L12.1094 12.6562L12.4609 10.0391C12.4658 10.0195 12.4951 10.0195 12.5 10C12.6562 9.38965 13.1396 8.90625 13.75 8.75C13.7695 8.74512 13.7695 8.71582 13.7891 8.71094L16.4062 8.35938L16.7188 8.32031L16.9922 8.125L19.2188 6.52344C19.4287 6.37695 19.7119 6.28906 20 6.28906ZM28.6328 25.3125L30.5469 28.2422H27.5391L27.2266 29.0234L26.3672 31.0156L23.7109 26.9531L24.2969 26.5234L26.7578 26.0938V26.1328C26.7871 26.1279 26.8066 26.0986 26.8359 26.0938C27.5098 26.001 28.1201 25.7178 28.6328 25.3125ZM11.3672 25.3516C11.8994 25.8301 12.5781 26.1621 13.3203 26.25C13.335 26.25 13.3447 26.25 13.3594 26.25L15.7422 26.5625L16.2891 26.9922L13.6328 31.0156L12.7734 29.0234L12.4609 28.2422H9.45312L11.3672 25.3516Z" fill="#0C2E5D"/>
</svg>
