<svg width="48" height="48" viewBox="0 0 48 48" fill="none" xmlns="http://www.w3.org/2000/svg">
<path d="M29.4844 6.46873C28.3242 6.60936 27.293 7.42967 26.9531 8.62498L22.9688 22.5937L17.9531 24.0469C17.5957 21.5039 15.3867 19.5 12.75 19.5C9.86719 19.5 7.5 21.8672 7.5 24.75C7.5 27.6328 9.86719 30 12.75 30C14.6836 30 16.3887 28.9043 17.2969 27.3281L21.9844 26.0156L20.6719 30.7031C19.0957 31.6113 18 33.3164 18 35.25C18 38.1328 20.3672 40.5 23.25 40.5C26.1328 40.5 28.5 38.1328 28.5 35.25C28.5 32.6133 26.4961 30.4043 23.9531 30.0469L30.6562 6.56248C30.2578 6.45115 29.8711 6.42186 29.4844 6.46873ZM41.4375 17.3437L28.3594 21.0469L27.375 24.4687L39.375 21.0469C40.9688 20.5898 41.8945 18.9375 41.4375 17.3437ZM12.75 22.5C14.0098 22.5 15 23.4902 15 24.75C15 26.0097 14.0098 27 12.75 27C11.4902 27 10.5 26.0097 10.5 24.75C10.5 23.4902 11.4902 22.5 12.75 22.5ZM23.25 33C24.5098 33 25.5 33.9902 25.5 35.25C25.5 36.5097 24.5098 37.5 23.25 37.5C21.9902 37.5 21 36.5097 21 35.25C21 33.9902 21.9902 33 23.25 33Z" fill="#FFFBF0"/>
</svg>
