<svg width="52" height="52" viewBox="0 0 52 52" fill="none" xmlns="http://www.w3.org/2000/svg">
<circle cx="26" cy="26" r="26" fill="#FADADD"/>
<path d="M26 16.25C25.5312 16.25 25.0654 16.4082 24.6641 16.6953L23.4219 17.5625L21.9922 17.75H21.9688L21.9453 17.7734C20.9902 17.9873 20.2373 18.7402 20.0234 19.6953L20 19.7188V19.7422L19.8125 21.1953L18.9453 22.3203L18.9219 22.3438V22.3672C18.3975 23.2051 18.374 24.2861 18.9453 25.0859L19.8359 26.3281L20.0703 27.6172L17.6562 31.2969L16.8828 32.4453H20.4688L21.3359 34.4609L21.875 35.75L22.6484 34.5781L25.0156 31.0156C25.6514 31.2764 26.3691 31.2998 26.9844 31.0156L29.3516 34.5781L30.125 35.75L30.6641 34.4609L31.5312 32.4453H35.1172L34.3438 31.2969L32 27.7344L32.1875 26.3281L33.0547 25.0859L33.0781 25.0625V25.0391C33.6025 24.2012 33.626 23.1436 33.0547 22.3438L32.1875 21.1016L31.9062 19.6953H31.9297C31.9268 19.6777 31.9092 19.666 31.9062 19.6484C31.7715 18.667 30.9951 17.8701 30.0078 17.75H29.9844L28.5781 17.5625L27.3359 16.6953C26.9346 16.4082 26.4688 16.25 26 16.25ZM26 17.7734C26.1729 17.7734 26.3428 17.8262 26.4688 17.9141L27.8047 18.875L27.9688 18.9922L28.1562 19.0156L29.7969 19.25H29.8203C30.1572 19.2881 30.3916 19.5225 30.4297 19.8594V19.9062L30.7344 21.5703L30.7578 21.7344L30.875 21.875L31.8359 23.2109C32.0146 23.46 32.0381 23.8818 31.8125 24.2422L30.7578 25.7188L30.7344 25.9062L30.5 27.5469V27.5703C30.4854 27.6934 30.4443 27.8076 30.3828 27.8984L30.3359 27.9219V27.9453C30.2275 28.0742 30.0781 28.1592 29.8906 28.1797H29.8438L28.1328 28.4844L27.9453 28.5078L27.8047 28.625L26.4688 29.5859C26.2197 29.7646 25.7744 29.7881 25.4141 29.5625L24.1953 28.625L24.0547 28.5078L23.8438 28.4844L22.2031 28.25H22.1797C21.9482 28.2236 21.7695 28.1035 21.6641 27.9219C21.6172 27.8398 21.582 27.7432 21.5703 27.6406V27.5938L21.2656 25.8828L21.2422 25.6953L21.125 25.5547L20.1641 24.2188C19.9854 23.9697 19.9619 23.5244 20.1875 23.1641L21.125 21.9453L21.2422 21.8047L21.2656 21.5938L21.4766 20.0234C21.4795 20.0117 21.4971 20.0117 21.5 20C21.5938 19.6338 21.8838 19.3438 22.25 19.25C22.2617 19.2471 22.2617 19.2295 22.2734 19.2266L23.8438 19.0156L24.0312 18.9922L24.1953 18.875L25.5312 17.9141C25.6572 17.8262 25.8271 17.7734 26 17.7734ZM31.1797 29.1875L32.3281 30.9453H30.5234L30.3359 31.4141L29.8203 32.6094L28.2266 30.1719L28.5781 29.9141L30.0547 29.6562V29.6797C30.0723 29.6768 30.084 29.6592 30.1016 29.6562C30.5059 29.6006 30.8721 29.4307 31.1797 29.1875ZM20.8203 29.2109C21.1396 29.498 21.5469 29.6973 21.9922 29.75C22.001 29.75 22.0068 29.75 22.0156 29.75L23.4453 29.9375L23.7734 30.1953L22.1797 32.6094L21.6641 31.4141L21.4766 30.9453H19.6719L20.8203 29.2109Z" fill="#502D30"/>
</svg>
