<svg width="48" height="48" viewBox="0 0 48 48" fill="none" xmlns="http://www.w3.org/2000/svg">
<path d="M14.25 7.5C8.04492 7.5 3 12.6035 3 18.75C3 20.8945 3.97266 22.752 4.875 24.0938C5.77734 25.4355 6.70312 26.2969 6.70312 26.2969L22.9219 42.5625L24 43.6406L25.0781 42.5625L41.2969 26.2969C41.2969 26.2969 45 23.0332 45 18.75C45 12.6035 39.9551 7.5 33.75 7.5C28.5996 7.5 25.2832 10.5996 24 11.9062C22.7168 10.5996 19.4004 7.5 14.25 7.5ZM14.25 10.5C18.7324 10.5 22.875 14.8594 22.875 14.8594L24 16.125L25.125 14.8594C25.125 14.8594 29.2676 10.5 33.75 10.5C38.3145 10.5 42 14.2441 42 18.75C42 21.0645 39.1875 24.1875 39.1875 24.1875L24 39.375L8.8125 24.1875C8.8125 24.1875 8.08594 23.4902 7.35938 22.4062C6.63281 21.3223 6 19.9102 6 18.75C6 14.2441 9.68555 10.5 14.25 10.5Z" fill="#0C2E5D"/>
</svg>
