<svg width="239" height="37" viewBox="0 0 239 37" fill="none" xmlns="http://www.w3.org/2000/svg">
<path fill-rule="evenodd" clip-rule="evenodd" d="M20.5682 4.26057C21.786 3.04286 23.7603 3.04286 24.9781 4.26057C26.1959 5.47837 26.1959 7.45277 24.9781 8.67057L17.5537 16.095C15.4221 13.2382 15.6536 9.17522 18.2484 6.58045L20.5682 4.26057Z" fill="#A6C1E7"/>
<path fill-rule="evenodd" clip-rule="evenodd" d="M31.1819 21.0114C32.3999 22.2291 32.3999 24.2036 31.1819 25.4213C29.9648 26.6391 27.9901 26.6391 26.7723 25.4213L19.3478 17.9969C22.2046 15.8653 26.2676 16.0968 28.8624 18.6915L31.1819 21.0114Z" fill="#FADADD"/>
<path fill-rule="evenodd" clip-rule="evenodd" d="M14.4314 31.6253C13.2137 32.8431 11.2392 32.8431 10.0215 31.6253C8.80371 30.4075 8.80371 28.4332 10.0215 27.2154L17.4459 19.791C19.5775 22.6478 19.346 26.7108 16.7512 29.3055L14.4314 31.6253Z" fill="#FDCB6E"/>
<path fill-rule="evenodd" clip-rule="evenodd" d="M3.81752 14.8746C2.59973 13.6568 2.59973 11.6824 3.81752 10.4646C5.03532 9.24682 7.00969 9.24682 8.22749 10.4646L15.6519 17.8891C12.7951 20.0207 8.73206 19.7891 6.13737 17.1944L3.81752 14.8746Z" fill="#FF6F61"/>
<path fill-rule="evenodd" clip-rule="evenodd" d="M18.9091 30.7161C20.7047 28.7196 21.5393 26.1649 21.4127 23.6497L24.9784 27.2153C24.9872 27.2242 24.9962 27.233 25.0051 27.2419V29.7875C25.0051 31.5097 23.609 32.9058 21.8868 32.9058C20.488 32.9058 19.3043 31.9848 18.9091 30.7161Z" fill="#FF6F61"/>
<path fill-rule="evenodd" clip-rule="evenodd" d="M4.72664 19.3521C6.72304 21.1478 9.27771 21.9824 11.793 21.8557L8.22743 25.4214C8.21848 25.4302 8.20962 25.4392 8.20084 25.448H5.65521C3.93303 25.4481 2.53693 24.0519 2.53693 22.3298C2.53693 20.931 3.45795 19.7473 4.72664 19.3521Z" fill="#A6C1E7"/>
<path fill-rule="evenodd" clip-rule="evenodd" d="M30.2728 16.5338C28.2766 14.7381 25.7219 13.9035 23.2067 14.0301L26.7722 10.4645C26.7812 10.4556 26.7899 10.4467 26.7988 10.4377H29.3445C31.067 10.4377 32.4631 11.8339 32.4631 13.5561C32.4631 14.9549 31.5417 16.1386 30.2728 16.5338Z" fill="#FDCB6E"/>
<path fill-rule="evenodd" clip-rule="evenodd" d="M16.0906 5.16978C14.2949 7.1662 13.4604 9.72087 13.5869 12.2362L10.0214 8.67059C10.0124 8.66173 10.0036 8.65286 9.99463 8.644V6.09835C9.99463 4.37617 11.3907 2.97998 13.1129 2.97998C14.5117 2.97998 15.6954 3.90109 16.0906 5.16978Z" fill="#FADADD"/>
<path fill-rule="evenodd" clip-rule="evenodd" d="M13.1131 0.442993C9.98974 0.442993 7.45771 2.97502 7.45771 6.0984V7.19834C5.57863 6.70738 3.49614 7.19807 2.0236 8.67061C-0.184978 10.8792 -0.184978 14.46 2.0236 16.6686L2.80134 17.4463C1.12548 18.4279 0 20.2474 0 22.3298C0 25.4532 2.53203 27.9852 5.65541 27.9852H6.75526C6.2643 29.8643 6.755 31.9468 8.22754 33.4192C10.4361 35.6278 14.0169 35.6278 16.2255 33.4192L18.5453 31.0994C20.5917 29.053 21.5475 26.3289 21.4126 23.6495L24.9783 27.2152C27.1869 29.4238 30.7678 29.4238 32.9765 27.2152C35.1852 25.0066 35.1852 21.4258 32.9765 19.2173L32.199 18.4396C33.8742 17.4581 35 15.6386 35 13.5562C35 10.4328 32.4675 7.90078 29.3445 7.90078H28.2446C28.7356 6.02162 28.2448 3.93913 26.7723 2.4666C24.5638 0.258016 20.983 0.258016 18.7744 2.4666L16.4545 4.78645C14.4081 6.83286 13.4524 9.55688 13.5872 12.2362L10.0216 8.67061C10.0126 8.66175 10.0038 8.65288 9.99482 8.64402V6.0984C9.99482 4.37622 11.3909 2.98011 13.1131 2.98011C14.5119 2.98011 15.6956 3.90114 16.0908 5.16983C16.208 5.03961 16.3292 4.91175 16.4545 4.78645L17.9966 3.24433C17.015 1.56848 15.1955 0.442993 13.1131 0.442993ZM26.7989 10.4379C26.79 10.4468 26.7812 10.4557 26.7723 10.4646L23.2067 14.0301C25.7221 13.9036 28.2767 14.7381 30.2729 16.5339C31.5418 16.1387 32.4631 14.9549 32.4631 13.5562C32.4631 11.834 31.067 10.4379 29.3445 10.4379H26.7989ZM8.20086 25.4481C8.20972 25.4391 8.21859 25.4302 8.22754 25.4213L11.7931 21.8557C9.27782 21.9823 6.72324 21.1477 4.72683 19.3521C3.45814 19.7473 2.53703 20.931 2.53703 22.3298C2.53703 24.052 3.93322 25.4481 5.65541 25.4481H8.20086ZM21.8868 35.443C19.8043 35.443 17.9848 34.3174 17.0032 32.6416L18.5453 31.0994C18.6707 30.9741 18.7919 30.8463 18.909 30.7161C19.3042 31.9847 20.4879 32.9059 21.8868 32.9059C23.609 32.9059 25.0051 31.5098 25.0051 29.7876V27.2419C25.7359 27.9632 26.6142 28.4451 27.5422 28.6875V29.7876C27.5422 32.911 25.0102 35.443 21.8868 35.443ZM24.9783 4.26056C23.7605 3.04285 21.7861 3.04285 20.5684 4.26056L18.2485 6.5804C15.6538 9.17517 15.4223 13.2382 17.5539 16.095L24.9783 8.67052C26.1961 7.45272 26.1961 5.47836 24.9783 4.26056ZM31.182 25.4212C32.4 24.2034 32.4 22.229 31.182 21.0113L28.8624 18.6914C26.2677 16.0967 22.2046 15.8651 19.3478 17.9968L26.7723 25.4212C27.9901 26.639 29.9649 26.639 31.182 25.4212ZM14.4315 31.6252C13.2137 32.843 11.2393 32.843 10.0215 31.6252C8.80379 30.4074 8.80379 28.4331 10.0215 27.2153L17.4459 19.7908C19.5776 22.6476 19.346 26.7107 16.7513 29.3054L14.4315 31.6252ZM3.81757 10.4646C2.59986 11.6824 2.59986 13.6567 3.81757 14.8745L6.13742 17.1944C8.73219 19.7891 12.7952 20.0206 15.652 17.889L8.22754 10.4646C7.00974 9.24686 5.03536 9.24686 3.81757 10.4646Z" fill="#3F2E1F"/>
<path d="M45.4503 29.4391C44.655 29.4391 44.0854 29.3209 43.7415 29.0845C43.4191 28.8481 43.2149 28.5364 43.129 28.1495C43.043 27.7626 43 27.365 43 26.9566V9.35305C43 8.94467 43.043 8.55778 43.129 8.19238C43.2149 7.80549 43.4299 7.49383 43.7738 7.2574C44.1177 7.02096 44.6873 6.90275 45.4825 6.90275H52.0919C52.9947 6.90275 53.8974 7.06395 54.8002 7.38636C55.7244 7.70877 56.5734 8.21388 57.3472 8.90168C58.1425 9.56799 58.7765 10.3955 59.2494 11.3842C59.7438 12.373 59.991 13.5336 59.991 14.8662C59.991 16.1774 59.7438 17.3273 59.2494 18.316C58.7765 19.3047 58.1425 20.1323 57.3472 20.7986C56.5734 21.4434 55.7244 21.9378 54.8002 22.2817C53.8759 22.6041 52.9624 22.7653 52.0597 22.7653H47.9329V26.9888C47.9329 27.3972 47.8899 27.7949 47.8039 28.1817C47.7179 28.5471 47.503 28.8481 47.1591 29.0845C46.8152 29.3209 46.2456 29.4391 45.4503 29.4391ZM47.9329 17.8647H52.0919C52.5648 17.8647 53.0269 17.7679 53.4783 17.5745C53.9512 17.3595 54.3381 17.0264 54.639 16.575C54.9614 16.1236 55.1226 15.5433 55.1226 14.834C55.1226 14.2322 54.9936 13.7056 54.7357 13.2542C54.4778 12.8028 54.1124 12.4482 53.6395 12.1903C53.1881 11.9323 52.6615 11.8034 52.0597 11.8034H47.9329V17.8647Z" fill="#3F2E1F"/>
<path d="M70.072 29.7293C68.5675 29.7293 67.2671 29.4821 66.1709 28.9878C65.0962 28.4934 64.2149 27.8486 63.5271 27.0533C62.8393 26.2365 62.3235 25.3338 61.9796 24.3451C61.6572 23.3564 61.496 22.3676 61.496 21.3789C61.496 19.7669 61.8613 18.3375 62.5921 17.0909C63.3229 15.8442 64.3332 14.8662 65.6228 14.1569C66.9124 13.4262 68.3955 13.0608 70.072 13.0608C71.3187 13.0608 72.3934 13.265 73.2961 13.6733C74.2204 14.0602 74.9726 14.5761 75.553 15.2209C76.1548 15.8442 76.5954 16.5213 76.8749 17.2521C77.1758 17.9829 77.3262 18.6814 77.3262 19.3477C77.3262 20.5299 77.0361 21.4112 76.4557 21.9915C75.8969 22.5503 75.1768 22.8298 74.2956 22.8298H66.6223C66.6652 23.3886 66.8587 23.8615 67.2026 24.2484C67.568 24.6352 68.0194 24.9362 68.5567 25.1511C69.0941 25.366 69.6636 25.4735 70.2655 25.4735C70.7813 25.4735 71.2327 25.452 71.6196 25.409C72.0065 25.3445 72.3396 25.2693 72.6191 25.1833C72.8985 25.0759 73.1564 24.9791 73.3928 24.8932C73.6293 24.7857 73.8335 24.6997 74.0054 24.6352C74.1989 24.5708 74.3816 24.5278 74.5535 24.5063C74.8759 24.4848 75.1661 24.5815 75.424 24.7964C75.7034 24.9899 75.9506 25.2908 76.1656 25.6992C76.316 25.9356 76.4127 26.1613 76.4557 26.3763C76.5202 26.5912 76.5525 26.8061 76.5525 27.0211C76.5525 27.5369 76.2838 27.999 75.7464 28.4074C75.2306 28.8158 74.489 29.1382 73.5218 29.3747C72.5761 29.6111 71.4261 29.7293 70.072 29.7293ZM66.6223 20.186H71.7163C72.0602 20.186 72.3074 20.1323 72.4579 20.0248C72.6298 19.8958 72.7158 19.6594 72.7158 19.3155C72.7158 18.9286 72.5976 18.5954 72.3611 18.316C72.1247 18.0151 71.8023 17.7894 71.3939 17.639C71.007 17.467 70.5556 17.381 70.0398 17.381C69.3735 17.381 68.7824 17.51 68.2665 17.7679C67.7507 18.0259 67.3423 18.3698 67.0414 18.7996C66.762 19.2295 66.6223 19.6916 66.6223 20.186Z" fill="#3F2E1F"/>
<path d="M87.3642 29.4391C86.268 29.4391 85.3223 29.3209 84.527 29.0845C83.7533 28.8481 83.1084 28.4827 82.5926 27.9883C82.0767 27.4939 81.6898 26.8706 81.4319 26.1183C81.1955 25.3445 81.0773 24.431 81.0773 23.3778V10.288C81.0773 9.85816 81.1095 9.47127 81.174 9.12737C81.26 8.78347 81.4749 8.50404 81.8188 8.28911C82.1627 8.05267 82.7215 7.93445 83.4953 7.93445C84.2691 7.93445 84.828 8.05267 85.1719 8.28911C85.5158 8.52554 85.72 8.82645 85.7844 9.19185C85.8704 9.55725 85.9134 9.95488 85.9134 10.3848V23.1844C85.9134 23.5283 85.9349 23.8185 85.9779 24.0549C86.0424 24.2698 86.1283 24.431 86.2358 24.5385C86.3433 24.646 86.4937 24.7212 86.6872 24.7642C86.8806 24.8072 87.1171 24.8287 87.3965 24.8287C87.8693 24.8287 88.2885 24.8717 88.6539 24.9577C89.0193 25.0436 89.2987 25.2371 89.4921 25.538C89.7071 25.8389 89.8145 26.344 89.8145 27.0533C89.8145 27.8271 89.6963 28.3859 89.4599 28.7298C89.2235 29.0737 88.9118 29.2779 88.5249 29.3424C88.1595 29.4069 87.7726 29.4391 87.3642 29.4391ZM80.0778 13.5766H83.6243L88.0735 13.4476C88.4819 13.4476 88.8688 13.4906 89.2342 13.5766C89.5996 13.6411 89.9005 13.8453 90.137 14.1892C90.3734 14.5331 90.4916 15.1027 90.4916 15.898C90.4916 16.6288 90.3734 17.1661 90.137 17.51C89.922 17.8539 89.6318 18.0796 89.2665 18.1871C88.9011 18.273 88.5034 18.316 88.0735 18.316L83.85 18.2193H79.9488C79.3255 18.1978 78.8849 18.0151 78.627 17.6712C78.3905 17.3058 78.2723 16.704 78.2723 15.8657C78.2723 15.0919 78.4228 14.5223 78.7237 14.1569C79.0246 13.7701 79.476 13.5766 80.0778 13.5766Z" fill="#3F2E1F"/>
<path d="M111.363 29.6971C109.772 29.6971 108.3 29.3961 106.946 28.7943C105.591 28.1925 104.399 27.3542 103.367 26.2795C102.357 25.2048 101.561 23.9474 100.981 22.5073C100.422 21.0672 100.143 19.5089 100.143 17.8324C100.143 16.2419 100.433 14.7695 101.013 13.4154C101.594 12.0398 102.4 10.8469 103.431 9.83667C104.463 8.80496 105.677 8.00968 107.075 7.45084C108.472 6.8705 109.987 6.56959 111.62 6.5481C112.287 6.5481 112.996 6.61258 113.748 6.74154C114.522 6.87051 115.274 7.06395 116.005 7.32188C116.736 7.5798 117.37 7.89147 117.907 8.25686C118.337 8.53628 118.713 8.8372 119.036 9.15961C119.38 9.46052 119.552 9.82592 119.552 10.2558C119.573 10.4707 119.53 10.7179 119.423 10.9973C119.315 11.2553 119.165 11.5239 118.971 11.8034C118.628 12.2977 118.284 12.6524 117.94 12.8673C117.617 13.0823 117.295 13.1897 116.972 13.1897C116.801 13.1897 116.596 13.136 116.36 13.0285C116.123 12.921 115.801 12.7383 115.393 12.4804C115.199 12.3515 114.898 12.2117 114.49 12.0613C114.082 11.9108 113.609 11.7819 113.071 11.6744C112.555 11.5454 112.018 11.481 111.459 11.481C110.234 11.481 109.138 11.7604 108.171 12.3192C107.203 12.8566 106.44 13.6089 105.882 14.5761C105.344 15.5433 105.065 16.661 105.043 17.9291C105.065 19.2188 105.355 20.3794 105.914 21.4112C106.473 22.4214 107.236 23.2274 108.203 23.8292C109.192 24.431 110.288 24.732 111.492 24.732C111.921 24.732 112.351 24.7105 112.781 24.6675C113.233 24.6245 113.662 24.56 114.071 24.474C114.501 24.3666 114.888 24.2376 115.231 24.0871V20.1538H111.782C111.416 20.1538 111.083 20.1215 110.782 20.057C110.503 19.9926 110.266 19.8099 110.073 19.5089C109.901 19.208 109.815 18.7137 109.815 18.0259C109.815 17.3381 109.912 16.8544 110.105 16.575C110.299 16.2741 110.546 16.0914 110.847 16.0269C111.169 15.9624 111.502 15.9302 111.846 15.9302H117.94C118.649 15.9517 119.154 16.0807 119.455 16.3171C119.756 16.5535 119.949 16.8544 120.035 17.2198C120.121 17.5637 120.164 17.9399 120.164 18.3483V25.3768C120.164 25.8926 119.928 26.43 119.455 26.9888C118.982 27.5262 118.337 27.999 117.521 28.4074C117.005 28.6868 116.414 28.9233 115.747 29.1167C115.102 29.2887 114.415 29.4284 113.684 29.5359C112.953 29.6433 112.179 29.6971 111.363 29.6971Z" fill="#3F2E1F"/>
<path d="M125.576 29.4391C124.78 29.4391 124.211 29.3317 123.867 29.1167C123.545 28.8803 123.34 28.5686 123.254 28.1817C123.19 27.7949 123.158 27.3972 123.158 26.9888V15.7368C123.158 15.3069 123.201 14.9092 123.287 14.5438C123.373 14.1784 123.577 13.8883 123.899 13.6733C124.243 13.4369 124.813 13.3187 125.608 13.3187C126.36 13.3187 126.898 13.4262 127.22 13.6411C127.564 13.8345 127.779 14.071 127.865 14.3504C127.951 14.6083 127.994 14.834 127.994 15.0275L127.607 15.2209C127.65 15.1349 127.757 14.9845 127.929 14.7695C128.123 14.5331 128.381 14.2967 128.703 14.0602C129.026 13.8023 129.412 13.5874 129.864 13.4154C130.337 13.2435 130.874 13.1575 131.476 13.1575C131.712 13.1575 131.97 13.179 132.25 13.222C132.551 13.2435 132.851 13.3079 133.152 13.4154C133.475 13.5014 133.765 13.6303 134.023 13.8023C134.281 13.9528 134.485 14.1462 134.635 14.3826C134.807 14.6191 134.893 14.9092 134.893 15.2531C134.893 16.1344 134.689 16.8867 134.281 17.51C133.872 18.1118 133.357 18.4127 132.733 18.4127C132.368 18.4127 132.11 18.3805 131.959 18.316C131.809 18.2515 131.68 18.1871 131.573 18.1226C131.487 18.0581 131.379 18.0044 131.25 17.9614C131.121 17.8969 130.885 17.8647 130.541 17.8647C130.218 17.8647 129.907 17.9076 129.606 17.9936C129.326 18.0796 129.058 18.2193 128.8 18.4127C128.563 18.5847 128.37 18.8104 128.22 19.0898C128.091 19.3477 128.026 19.6379 128.026 19.9603V27.0533C128.026 27.4617 127.983 27.8593 127.897 28.2462C127.833 28.6116 127.628 28.9018 127.285 29.1167C126.941 29.3317 126.371 29.4391 125.576 29.4391Z" fill="#3F2E1F"/>
<path d="M143.741 29.6971C142.731 29.6971 141.721 29.5036 140.711 29.1167C139.722 28.7083 138.819 28.1388 138.003 27.408C137.186 26.6772 136.541 25.8067 136.068 24.7964C135.595 23.7647 135.359 22.6256 135.359 21.3789C135.359 20.2182 135.574 19.1435 136.004 18.1548C136.434 17.1446 137.035 16.2526 137.809 15.4788C138.583 14.705 139.464 14.1032 140.453 13.6733C141.463 13.222 142.538 12.9963 143.677 12.9963C145.225 12.9963 146.622 13.3724 147.868 14.1247C149.136 14.8555 150.147 15.855 150.899 17.1231C151.651 18.3913 152.027 19.7991 152.027 21.3467C152.027 22.6578 151.78 23.8292 151.286 24.8609C150.813 25.8711 150.168 26.7416 149.351 27.4724C148.556 28.2032 147.664 28.7621 146.675 29.149C145.708 29.5144 144.73 29.6971 143.741 29.6971ZM143.677 24.8287C144.193 24.8287 144.719 24.6997 145.257 24.4418C145.794 24.1839 146.246 23.797 146.611 23.2811C146.976 22.7653 147.159 22.1097 147.159 21.3144C147.159 20.6266 147.009 20.0248 146.708 19.5089C146.407 18.9931 145.988 18.5954 145.45 18.316C144.934 18.0151 144.333 17.8647 143.645 17.8647C143 17.8647 142.42 18.0151 141.904 18.316C141.409 18.6169 141.001 19.0361 140.679 19.5734C140.378 20.0893 140.227 20.6804 140.227 21.3467C140.227 22.1205 140.399 22.776 140.743 23.3134C141.108 23.8292 141.56 24.2161 142.097 24.474C142.635 24.7105 143.161 24.8287 143.677 24.8287Z" fill="#3F2E1F"/>
<path d="M161.751 29.6971C160.741 29.6971 159.731 29.5036 158.72 29.1167C157.732 28.7083 156.829 28.1388 156.012 27.408C155.195 26.6772 154.551 25.8067 154.078 24.7964C153.605 23.7647 153.368 22.6256 153.368 21.3789C153.368 20.2182 153.583 19.1435 154.013 18.1548C154.443 17.1446 155.045 16.2526 155.819 15.4788C156.593 14.705 157.474 14.1032 158.462 13.6733C159.473 13.222 160.547 12.9963 161.687 12.9963C163.234 12.9963 164.631 13.3724 165.878 14.1247C167.146 14.8555 168.156 15.855 168.909 17.1231C169.661 18.3913 170.037 19.7991 170.037 21.3467C170.037 22.6578 169.79 23.8292 169.295 24.8609C168.823 25.8711 168.178 26.7416 167.361 27.4724C166.566 28.2032 165.674 28.7621 164.685 29.149C163.718 29.5144 162.74 29.6971 161.751 29.6971ZM161.687 24.8287C162.202 24.8287 162.729 24.6997 163.266 24.4418C163.804 24.1839 164.255 23.797 164.62 23.2811C164.986 22.7653 165.169 22.1097 165.169 21.3144C165.169 20.6266 165.018 20.0248 164.717 19.5089C164.416 18.9931 163.997 18.5954 163.46 18.316C162.944 18.0151 162.342 17.8647 161.654 17.8647C161.01 17.8647 160.429 18.0151 159.913 18.316C159.419 18.6169 159.011 19.0361 158.688 19.5734C158.387 20.0893 158.237 20.6804 158.237 21.3467C158.237 22.1205 158.409 22.776 158.753 23.3134C159.118 23.8292 159.569 24.2161 160.107 24.474C160.644 24.7105 161.171 24.8287 161.687 24.8287Z" fill="#3F2E1F"/>
<path d="M174.376 29.4391C173.603 29.4391 173.044 29.3209 172.7 29.0845C172.356 28.8481 172.152 28.5471 172.087 28.1817C172.023 27.8163 171.991 27.4187 171.991 26.9888V15.7045C171.991 15.2746 172.023 14.8877 172.087 14.5438C172.173 14.1784 172.388 13.8883 172.732 13.6733C173.076 13.4369 173.646 13.3187 174.441 13.3187C175.236 13.3187 175.816 13.4799 176.182 13.8023C176.547 14.1032 176.73 14.6083 176.73 15.3176L176.311 15.6723C176.354 15.5648 176.483 15.3821 176.698 15.1242C176.913 14.8662 177.192 14.5976 177.536 14.3182C177.88 14.0387 178.278 13.8023 178.729 13.6089C179.202 13.3939 179.707 13.2864 180.244 13.2864C180.954 13.2864 181.588 13.3939 182.146 13.6089C182.727 13.8023 183.243 14.1032 183.694 14.5116C184.167 14.8985 184.575 15.3929 184.919 15.9947C185.22 15.5648 185.585 15.1457 186.015 14.7373C186.445 14.3289 186.95 13.985 187.531 13.7056C188.133 13.4262 188.799 13.2864 189.53 13.2864C190.776 13.2864 191.829 13.6089 192.689 14.2537C193.57 14.877 194.237 15.7797 194.688 16.9619C195.14 18.1441 195.365 19.5734 195.365 21.2499V27.0211C195.365 27.4295 195.322 27.8271 195.236 28.214C195.172 28.5794 194.968 28.8803 194.624 29.1167C194.28 29.3317 193.71 29.4391 192.915 29.4391C192.12 29.4391 191.55 29.3209 191.206 29.0845C190.884 28.8481 190.68 28.5471 190.594 28.1817C190.529 27.7949 190.497 27.3972 190.497 26.9888V21.2177C190.497 20.5514 190.422 19.9926 190.271 19.5412C190.121 19.0898 189.884 18.7459 189.562 18.5095C189.261 18.2515 188.874 18.1226 188.401 18.1226C187.907 18.1226 187.488 18.2408 187.144 18.4772C186.8 18.6922 186.542 19.0361 186.37 19.5089C186.198 19.9603 186.112 20.5406 186.112 21.2499V27.0211C186.112 27.4509 186.058 27.8593 185.951 28.2462C185.843 28.6116 185.607 28.9125 185.242 29.149C184.898 29.3639 184.339 29.4606 183.565 29.4391C182.791 29.4176 182.243 29.2887 181.921 29.0522C181.598 28.8158 181.405 28.5149 181.34 28.1495C181.276 27.7626 181.244 27.3757 181.244 26.9888V21.2177C181.244 20.5514 181.168 19.9926 181.018 19.5412C180.868 19.0683 180.642 18.7137 180.341 18.4772C180.04 18.2408 179.642 18.1226 179.148 18.1226C178.611 18.1226 178.17 18.2623 177.826 18.5417C177.482 18.8211 177.224 19.1973 177.052 19.6701C176.902 20.1215 176.827 20.6374 176.827 21.2177V27.0211C176.827 27.4509 176.784 27.8486 176.698 28.214C176.633 28.5794 176.429 28.8803 176.085 29.1167C175.741 29.3317 175.172 29.4391 174.376 29.4391Z" fill="#3F2E1F"/>
<path d="M200.483 29.4391C199.688 29.4391 199.118 29.3317 198.774 29.1167C198.452 28.8803 198.248 28.5794 198.162 28.214C198.097 27.8271 198.065 27.4295 198.065 27.0211V15.769C198.065 15.3391 198.097 14.9415 198.162 14.5761C198.248 14.2107 198.463 13.9205 198.806 13.7056C199.15 13.4691 199.72 13.3509 200.515 13.3509C201.289 13.3509 201.837 13.4691 202.159 13.7056C202.503 13.942 202.708 14.2429 202.772 14.6083C202.858 14.9737 202.901 15.3821 202.901 15.8335V27.0533C202.901 27.4617 202.858 27.8593 202.772 28.2462C202.708 28.6116 202.503 28.9018 202.159 29.1167C201.837 29.3317 201.278 29.4391 200.483 29.4391ZM200.483 10.9973C199.666 10.9973 199.086 10.8791 198.742 10.6427C198.398 10.4063 198.183 10.0946 198.097 9.7077C198.033 9.32081 198 8.91243 198 8.48255C198 8.03118 198.043 7.62279 198.129 7.2574C198.215 6.87051 198.43 6.56959 198.774 6.35465C199.118 6.11822 199.698 6 200.515 6C201.31 6 201.88 6.11822 202.224 6.35465C202.568 6.59108 202.772 6.90275 202.837 7.28964C202.923 7.67653 202.966 8.08491 202.966 8.51479C202.966 8.94467 202.923 9.35305 202.837 9.73994C202.772 10.1268 202.568 10.4385 202.224 10.6749C201.88 10.8899 201.3 10.9973 200.483 10.9973Z" fill="#3F2E1F"/>
<path d="M208.13 29.4069C207.335 29.4069 206.765 29.2994 206.421 29.0845C206.099 28.8481 205.895 28.5471 205.809 28.1817C205.744 27.7949 205.712 27.3972 205.712 26.9888V15.64C205.712 15.2316 205.755 14.8555 205.841 14.5116C205.927 14.1462 206.131 13.856 206.454 13.6411C206.797 13.4262 207.367 13.3187 208.162 13.3187C208.85 13.3187 209.355 13.4154 209.678 13.6089C210 13.7808 210.204 13.9957 210.29 14.2537C210.398 14.5116 210.451 14.7588 210.451 14.9952C210.451 15.2102 210.473 15.3606 210.516 15.4466L210.322 16.0592C210.365 15.7368 210.527 15.4143 210.806 15.0919C211.107 14.748 211.472 14.4471 211.902 14.1892C212.354 13.9098 212.827 13.6948 213.321 13.5444C213.837 13.3939 214.342 13.3187 214.836 13.3187C215.868 13.3187 216.781 13.5121 217.577 13.899C218.393 14.2644 219.081 14.8018 219.64 15.5111C220.199 16.2204 220.618 17.0586 220.897 18.0259C221.198 18.9716 221.349 20.014 221.349 21.1532V27.0211C221.349 27.4295 221.306 27.8271 221.22 28.214C221.155 28.5794 220.951 28.8695 220.607 29.0845C220.285 29.2994 219.726 29.4069 218.931 29.4069C218.114 29.4069 217.534 29.2994 217.19 29.0845C216.867 28.8481 216.663 28.5471 216.577 28.1817C216.491 27.7949 216.448 27.3972 216.448 26.9888V21.1532C216.448 20.5084 216.341 19.9603 216.126 19.5089C215.911 19.0576 215.588 18.7137 215.159 18.4772C214.729 18.2193 214.202 18.0903 213.579 18.0903C212.955 18.0903 212.418 18.2193 211.967 18.4772C211.515 18.7352 211.161 19.0898 210.903 19.5412C210.666 19.9926 210.548 20.5299 210.548 21.1532V27.0211C210.548 27.4295 210.505 27.8271 210.419 28.214C210.355 28.5794 210.151 28.8695 209.807 29.0845C209.484 29.2994 208.925 29.4069 208.13 29.4069Z" fill="#3F2E1F"/>
<path d="M231.133 36.0808C230.381 36.0808 229.629 35.984 228.876 35.7906C228.124 35.5972 227.436 35.3392 226.813 35.0168C226.19 34.6944 225.695 34.3505 225.33 33.9851C224.964 33.6197 224.782 33.2543 224.782 32.8889C224.782 32.545 224.846 32.2226 224.975 31.9217C225.104 31.6423 225.298 31.3628 225.556 31.0834C225.856 30.761 226.114 30.5138 226.329 30.3419C226.544 30.1699 226.802 30.084 227.103 30.084C227.404 30.084 227.673 30.1592 227.909 30.3096C228.146 30.4816 228.393 30.6643 228.651 30.8577C228.93 31.0512 229.274 31.2231 229.682 31.3736C230.091 31.5455 230.607 31.6315 231.23 31.6315C231.681 31.6315 232.09 31.5455 232.455 31.3736C232.82 31.2231 233.143 30.9867 233.422 30.6643C233.702 30.3634 233.917 29.998 234.067 29.5681C234.218 29.1597 234.293 28.6976 234.293 28.1817V14.834C234.357 14.2752 234.572 13.8775 234.938 13.6411C235.325 13.3832 235.905 13.2542 236.679 13.2542C237.452 13.2542 237.99 13.3724 238.291 13.6089C238.613 13.8238 238.807 14.114 238.871 14.4794C238.957 14.8448 239 15.2316 239 15.64V28.3752C239 29.6003 238.774 30.6858 238.323 31.6315C237.872 32.5987 237.27 33.4048 236.517 34.0496C235.765 34.7159 234.927 35.221 234.003 35.5649C233.078 35.9088 232.122 36.0808 231.133 36.0808ZM230.553 29.02C229.586 29.02 228.661 28.8158 227.78 28.4074C226.92 27.9775 226.147 27.3972 225.459 26.6664C224.793 25.9356 224.266 25.0974 223.879 24.1516C223.492 23.2059 223.299 22.2064 223.299 21.1532C223.299 20.1 223.492 19.1113 223.879 18.1871C224.266 17.2413 224.793 16.4138 225.459 15.7045C226.147 14.9737 226.92 14.4041 227.78 13.9957C228.661 13.5659 229.586 13.3509 230.553 13.3509C231.499 13.3509 232.305 13.5444 232.971 13.9313C233.637 14.2967 234.175 14.834 234.583 15.5433C235.013 16.2311 235.325 17.0586 235.518 18.0259C235.711 18.9716 235.808 20.0355 235.808 21.2177C235.808 22.8083 235.636 24.1946 235.292 25.3768C234.948 26.5375 234.39 27.4402 233.616 28.085C232.842 28.7083 231.821 29.02 230.553 29.02ZM231.133 24.3451C231.692 24.3451 232.197 24.2054 232.649 23.9259C233.1 23.625 233.455 23.2381 233.713 22.7653C233.992 22.2924 234.132 21.7551 234.132 21.1532C234.132 20.5514 233.992 20.014 233.713 19.5412C233.455 19.0683 233.089 18.6922 232.616 18.4127C232.165 18.1333 231.649 17.9936 231.069 17.9936C230.488 17.9936 229.973 18.1333 229.521 18.4127C229.07 18.6922 228.704 19.0791 228.425 19.5734C228.167 20.0463 228.038 20.5836 228.038 21.1855C228.038 21.7658 228.178 22.2924 228.457 22.7653C228.737 23.2381 229.102 23.625 229.553 23.9259C230.026 24.2054 230.553 24.3451 231.133 24.3451Z" fill="#3F2E1F"/>
</svg>
