<svg width="48" height="48" viewBox="0 0 48 48" fill="none" xmlns="http://www.w3.org/2000/svg">
<path d="M18.75 7.5C17.1445 7.5 15.75 8.41406 14.8594 9.65625C13.9688 10.8984 13.5 12.5098 13.5 14.25C13.5 15.9902 13.9688 17.6016 14.8594 18.8438C15.75 20.0859 17.1445 21 18.75 21C20.3555 21 21.75 20.0859 22.6406 18.8438C23.5312 17.6016 24 15.9902 24 14.25C24 12.5098 23.5312 10.8984 22.6406 9.65625C21.75 8.41406 20.3555 7.5 18.75 7.5ZM24 14.25C24 15.9902 24.4688 17.6016 25.3594 18.8438C26.25 20.0859 27.6445 21 29.25 21C30.8555 21 32.25 20.0859 33.1406 18.8438C34.0312 17.6016 34.5 15.9902 34.5 14.25C34.5 12.5098 34.0312 10.8984 33.1406 9.65625C32.25 8.41406 30.8555 7.5 29.25 7.5C27.6445 7.5 26.25 8.41406 25.3594 9.65625C24.4688 10.8984 24 12.5098 24 14.25ZM18.75 10.5C19.2188 10.5 19.7344 10.7344 20.2031 11.3906C20.6719 12.0469 21 13.0898 21 14.25C21 15.4102 20.6719 16.4531 20.2031 17.1094C19.7344 17.7656 19.2188 18 18.75 18C18.2812 18 17.7656 17.7656 17.2969 17.1094C16.8281 16.4531 16.5 15.4102 16.5 14.25C16.5 13.0898 16.8281 12.0469 17.2969 11.3906C17.7656 10.7344 18.2812 10.5 18.75 10.5ZM29.25 10.5C29.7188 10.5 30.2344 10.7344 30.7031 11.3906C31.1719 12.0469 31.5 13.0898 31.5 14.25C31.5 15.4102 31.1719 16.4531 30.7031 17.1094C30.2344 17.7656 29.7188 18 29.25 18C28.7812 18 28.2656 17.7656 27.7969 17.1094C27.3281 16.4531 27 15.4102 27 14.25C27 13.0898 27.3281 12.0469 27.7969 11.3906C28.2656 10.7344 28.7812 10.5 29.25 10.5ZM11.25 18C9.64453 18 8.25 18.9141 7.35938 20.1562C6.46875 21.3984 6 23.0098 6 24.75C6 26.4902 6.46875 28.1016 7.35938 29.3438C8.25 30.5859 9.64453 31.5 11.25 31.5C12.8555 31.5 14.25 30.5859 15.1406 29.3438C16.0312 28.1016 16.5 26.4902 16.5 24.75C16.5 23.0098 16.0312 21.3984 15.1406 20.1562C14.25 18.9141 12.8555 18 11.25 18ZM36.75 18C35.1445 18 33.75 18.9141 32.8594 20.1562C31.9688 21.3984 31.5 23.0098 31.5 24.75C31.5 26.4902 31.9688 28.1016 32.8594 29.3438C33.75 30.5859 35.1445 31.5 36.75 31.5C38.3555 31.5 39.75 30.5859 40.6406 29.3438C41.5312 28.1016 42 26.4902 42 24.75C42 23.0098 41.5312 21.3984 40.6406 20.1562C39.75 18.9141 38.3555 18 36.75 18ZM11.25 21C11.7188 21 12.2344 21.2344 12.7031 21.8906C13.1719 22.5469 13.5 23.5898 13.5 24.75C13.5 25.9102 13.1719 26.9531 12.7031 27.6094C12.2344 28.2656 11.7188 28.5 11.25 28.5C10.7812 28.5 10.2656 28.2656 9.79688 27.6094C9.32812 26.9531 9 25.9102 9 24.75C9 23.5898 9.32812 22.5469 9.79688 21.8906C10.2656 21.2344 10.7812 21 11.25 21ZM36.75 21C37.2188 21 37.7344 21.2344 38.2031 21.8906C38.6719 22.5469 39 23.5898 39 24.75C39 25.9102 38.6719 26.9531 38.2031 27.6094C37.7344 28.2656 37.2188 28.5 36.75 28.5C36.2812 28.5 35.7656 28.2656 35.2969 27.6094C34.8281 26.9531 34.5 25.9102 34.5 24.75C34.5 23.5898 34.8281 22.5469 35.2969 21.8906C35.7656 21.2344 36.2812 21 36.75 21ZM24 24C22.002 24 20.6074 25.3008 19.9219 26.4375C19.2363 27.5742 18.8203 28.5234 18.4219 28.9219C18.1875 29.1562 16.7402 29.7012 15.2344 30.4688C14.4785 30.8555 13.7168 31.3711 13.0781 32.1562C12.4395 32.9414 12 34.0312 12 35.25C12 38.1328 14.3672 40.5 17.25 40.5C18.5508 40.5 19.9043 40.084 21.2344 39.7031C22.5645 39.3223 24 39 24 39C24 39 25.4355 39.3223 26.7656 39.7031C28.0957 40.084 29.4492 40.5 30.75 40.5C33.6328 40.5 36 38.1328 36 35.25C36 34.0605 35.5605 32.9707 34.9219 32.2031C34.2832 31.4355 33.5156 30.9609 32.7656 30.5625C31.2656 29.7656 29.7891 29.1328 29.5781 28.9219C29.2207 28.5645 28.8164 27.5859 28.125 26.4375C27.4336 25.2891 26.0098 24 24 24ZM24 27C24.9902 27 25.1016 27.2402 25.5469 27.9844C25.9922 28.7285 26.332 29.9883 27.4219 31.0781C28.6582 32.3145 30.2227 32.584 31.3594 33.1875C31.9277 33.4922 32.3672 33.8145 32.625 34.125C32.8828 34.4355 33 34.7227 33 35.25C33 36.5098 32.0098 37.5 30.75 37.5C30.3164 37.5 28.916 37.166 27.6094 36.7969C26.3027 36.4277 25.2246 36 24 36C22.7754 36 21.6973 36.4277 20.3906 36.7969C19.084 37.166 17.6836 37.5 17.25 37.5C15.9902 37.5 15 36.5098 15 35.25C15 34.6465 15.123 34.3359 15.375 34.0312C15.627 33.7266 16.084 33.4277 16.6406 33.1406C17.7598 32.5723 19.3125 32.3438 20.5781 31.0781C21.6797 29.9766 22.0137 28.6758 22.4531 27.9375C22.8926 27.1992 22.998 27 24 27Z" fill="#0C2E5D"/>
</svg>
