<svg width="32" height="32" viewBox="0 0 32 32" fill="none" xmlns="http://www.w3.org/2000/svg">
<rect width="32" height="32" rx="9" fill="#FFF9E5"/>
<path fill-rule="evenodd" clip-rule="evenodd" d="M17.7531 8.18145C18.449 7.48562 19.5772 7.48562 20.2731 8.18145C20.969 8.87733 20.969 10.0056 20.2731 10.7014L16.0306 14.944C14.8125 13.3115 14.9448 10.9898 16.4276 9.50709L17.7531 8.18145Z" fill="#A6C1E7"/>
<path fill-rule="evenodd" clip-rule="evenodd" d="M23.8185 17.7533C24.5145 18.4492 24.5145 19.5774 23.8185 20.2733C23.123 20.9692 21.9946 20.9692 21.2987 20.2733L17.0562 16.0308C18.6886 14.8127 21.0103 14.945 22.493 16.4277L23.8185 17.7533Z" fill="#FADADD"/>
<path fill-rule="evenodd" clip-rule="evenodd" d="M14.2464 23.8185C13.5506 24.5144 12.4223 24.5144 11.7265 23.8185C11.0306 23.1226 11.0306 21.9944 11.7265 21.2985L15.969 17.056C17.1871 18.6885 17.0548 21.0102 15.5721 22.4929L14.2464 23.8185Z" fill="#FDCB6E"/>
<path fill-rule="evenodd" clip-rule="evenodd" d="M8.18158 14.2466C7.4857 13.5507 7.4857 12.4225 8.18158 11.7266C8.87746 11.0307 10.0057 11.0307 10.7016 11.7266L14.9441 15.9692C13.3117 17.1872 10.9899 17.0549 9.50721 15.5722L8.18158 14.2466Z" fill="#FF6F61"/>
<path fill-rule="evenodd" clip-rule="evenodd" d="M16.8052 23.2989C17.8313 22.158 18.3082 20.6982 18.2358 19.2609L20.2733 21.2984C20.2784 21.3035 20.2835 21.3086 20.2886 21.3136V22.7683C20.2886 23.7524 19.4908 24.5502 18.5067 24.5502C17.7074 24.5502 17.031 24.0239 16.8052 23.2989Z" fill="#FF6F61"/>
<path fill-rule="evenodd" clip-rule="evenodd" d="M8.70097 16.8052C9.84177 17.8313 11.3016 18.3082 12.7389 18.2359L10.7014 20.2734C10.6963 20.2784 10.6912 20.2835 10.6862 20.2886H9.23159C8.24748 20.2887 7.44971 19.4908 7.44971 18.5067C7.44971 17.7074 7.97601 17.031 8.70097 16.8052Z" fill="#A6C1E7"/>
<path fill-rule="evenodd" clip-rule="evenodd" d="M23.2985 15.1948C22.1578 14.1687 20.698 13.6918 19.2607 13.7641L21.2982 11.7266C21.3033 11.7215 21.3083 11.7164 21.3134 11.7113H22.7681C23.7523 11.7113 24.5501 12.5091 24.5501 13.4932C24.5501 14.2926 24.0236 14.969 23.2985 15.1948Z" fill="#FDCB6E"/>
<path fill-rule="evenodd" clip-rule="evenodd" d="M15.1949 8.70104C14.1687 9.84185 13.6919 11.3017 13.7642 12.739L11.7267 10.7015C11.7216 10.6964 11.7165 10.6914 11.7114 10.6863V9.23165C11.7114 8.24755 12.5092 7.44972 13.4933 7.44972C14.2926 7.44972 14.969 7.97607 15.1949 8.70104Z" fill="#FADADD"/>
<path fill-rule="evenodd" clip-rule="evenodd" d="M13.4932 6C11.7084 6 10.2615 7.44687 10.2615 9.23166V9.8602C9.18779 9.57965 7.99779 9.86005 7.15635 10.7015C5.8943 11.9635 5.8943 14.0097 7.15635 15.2718L7.60076 15.7162C6.64313 16.2771 6 17.3168 6 18.5067C6 20.2915 7.44687 21.7384 9.23166 21.7384H9.86015C9.5796 22.8122 9.86 24.0021 10.7015 24.8435C11.9635 26.1056 14.0097 26.1056 15.2717 24.8435L16.5973 23.518C17.7667 22.3486 18.3128 20.792 18.2358 19.2609L20.2733 21.2984C21.5354 22.5604 23.5816 22.5604 24.8437 21.2984C26.1058 20.0363 26.1058 17.9902 24.8437 16.7282L24.3994 16.2838C25.3567 15.7229 26 14.6832 26 13.4932C26 11.7085 24.5529 10.2616 22.7683 10.2616H22.1397C22.4203 9.18778 22.1399 7.99779 21.2984 7.15635C20.0365 5.8943 17.9903 5.8943 16.7282 7.15635L15.4026 8.48197C14.2332 9.65135 13.6871 11.2079 13.7641 12.739L11.7266 10.7015C11.7215 10.6964 11.7164 10.6914 11.7113 10.6863V9.23166C11.7113 8.24756 12.5091 7.44978 13.4932 7.44978C14.2925 7.44978 14.9689 7.97608 15.1948 8.70105C15.2617 8.62664 15.331 8.55358 15.4026 8.48197L16.2838 7.60076C15.7229 6.64313 14.6831 6 13.4932 6ZM21.3136 11.7114C21.3086 11.7164 21.3036 11.7216 21.2984 11.7266L19.261 13.7641C20.6983 13.6918 22.1581 14.1686 23.2988 15.1948C24.0239 14.969 24.5504 14.2925 24.5504 13.4932C24.5504 12.5091 23.7526 11.7114 22.7683 11.7114H21.3136ZM10.6862 20.2886C10.6913 20.2835 10.6963 20.2784 10.7015 20.2733L12.7389 18.2358C11.3016 18.3082 9.84185 17.8313 8.70105 16.8052C7.97608 17.031 7.44973 17.7074 7.44973 18.5067C7.44973 19.4908 8.24756 20.2886 9.23166 20.2886H10.6862ZM18.5067 26C17.3168 26 16.277 25.3568 15.7161 24.3992L16.5973 23.518C16.669 23.4464 16.7382 23.3733 16.8051 23.2989C17.031 24.0239 17.7074 24.5502 18.5067 24.5502C19.4908 24.5502 20.2886 23.7524 20.2886 22.7683V21.3137C20.7062 21.7258 21.2081 22.0012 21.7384 22.1397V22.7683C21.7384 24.5531 20.2915 26 18.5067 26ZM20.2733 8.18147C19.5774 7.48563 18.4492 7.48563 17.7533 8.18147L16.4277 9.50709C14.945 10.9898 14.8127 13.3115 16.0308 14.944L20.2733 10.7014C20.9692 10.0056 20.9692 8.87735 20.2733 8.18147ZM23.8183 20.2733C24.5143 19.5774 24.5143 18.4492 23.8183 17.7533L22.4928 16.4277C21.0101 14.945 18.6884 14.8127 17.0559 16.0307L21.2984 20.2733C21.9943 20.9692 23.1228 20.9692 23.8183 20.2733ZM14.2466 23.8184C13.5507 24.5143 12.4225 24.5143 11.7266 23.8184C11.0307 23.1225 11.0307 21.9943 11.7266 21.2984L15.9691 17.0559C17.1872 18.6884 17.0549 21.0101 15.5722 22.4928L14.2466 23.8184ZM8.18147 11.7266C7.48564 12.4225 7.48564 13.5507 8.18147 14.2466L9.5071 15.5722C10.9898 17.0549 13.3115 17.1872 14.944 15.9692L10.7015 11.7266C10.0056 11.0308 8.87735 11.0308 8.18147 11.7266Z" fill="#3F2E1F"/>
</svg>
