<svg width="40" height="40" viewBox="0 0 40 40" fill="none" xmlns="http://www.w3.org/2000/svg">
<path d="M32.5 5C29.7363 5 27.5 7.23633 27.5 10H25V12.5H32.5V10H30C30 8.51074 31.0107 7.5 32.5 7.5C33.9893 7.5 35 8.51074 35 10V17.5H1.25V20H2.73438L4.64844 29.4922V29.5312C4.93652 30.8203 5.89356 31.8799 7.14844 32.3047L6.25 35H8.75L9.57031 32.5H30.4297L31.25 35H33.75L32.8516 32.3047C34.1602 31.9043 35.1758 30.8545 35.4688 29.5312V29.4922L37.2656 20H38.75V17.5H37.5V10C37.5 7.23633 35.2637 5 32.5 5ZM5.27344 20H34.7656L33.0078 29.0234C32.8613 29.5654 32.4023 30 31.7578 30H8.35938C7.69043 30 7.23633 29.5557 7.10938 28.9844L5.27344 20Z" fill="#3F2E1F"/>
</svg>
