<svg width="48" height="48" viewBox="0 0 48 48" fill="none" xmlns="http://www.w3.org/2000/svg">
<path d="M30.4688 4.5L30.0938 5.48438L25.9688 16.5H14.4375C13.0664 16.5 11.7656 16.8867 10.6875 17.5781L7.07812 13.9219L4.92188 16.0781L8.57812 19.6875C7.88672 20.7656 7.5 22.0664 7.5 23.4375C7.5 24.1934 7.62891 24.9668 7.875 25.6875L8.95312 28.8281L7.54688 34.125L7.5 34.3125V42H10.5V34.6875L11.9531 29.2031L12.0469 28.7344L11.9062 28.3125L10.6875 24.7031C10.5527 24.2988 10.5 23.8652 10.5 23.4375C10.5 21.2344 12.2344 19.5 14.4375 19.5H26.4844L31.5 24.4219V20.2031L28.7812 17.5312L31.875 9.23438L32.25 9.79688L32.6719 10.5H35.4844L40.0781 13.9688L38.8125 16.5H33V25.3125L31.5938 29.5312L31.5 29.7656V34.6875L33 40.6875V42H36V40.3125L34.5 34.3125V30.1875L35.9062 25.9688L36 25.7344V19.5H40.6875L43.9219 13.0312L42.8906 12.2812L36.5156 7.5H34.3594L32.9062 5.20312L32.4844 4.5H30.4688ZM15.3281 27L13.5 34.3125V42H16.5V34.6875L17.6719 30H19.0781C19.6055 30.3516 21.4688 31.5 24 31.5H25.5V34.6875L27 40.6875V42H30V40.3125L28.5 34.3125V28.5H24C22.4062 28.5 20.3438 27.2344 20.3438 27.2344L19.9688 27H15.3281Z" fill="#FFFBF0"/>
</svg>
