<svg width="40" height="40" viewBox="0 0 40 40" fill="none" xmlns="http://www.w3.org/2000/svg">
<path d="M25.3906 3.75L25.0781 4.57031L21.6406 13.75H12.0312C10.8887 13.75 9.80469 14.0723 8.90625 14.6484L5.89844 11.6016L4.10156 13.3984L7.14844 16.4062C6.57227 17.3047 6.25 18.3887 6.25 19.5312C6.25 20.1611 6.35742 20.8057 6.5625 21.4062L7.46094 24.0234L6.28906 28.4375L6.25 28.5938V35H8.75V28.9062L9.96094 24.3359L10.0391 23.9453L9.92188 23.5938L8.90625 20.5859C8.79394 20.249 8.75 19.8877 8.75 19.5312C8.75 17.6953 10.1953 16.25 12.0312 16.25H22.0703L26.25 20.3516V16.8359L23.9844 14.6094L26.5625 7.69531L26.875 8.16406L27.2266 8.75H29.5703L33.3984 11.6406L32.3438 13.75H27.5V21.0938L26.3281 24.6094L26.25 24.8047V28.9062L27.5 33.9062V35H30V33.5938L28.75 28.5938V25.1562L29.9219 21.6406L30 21.4453V16.25H33.9062L36.6016 10.8594L35.7422 10.2344L30.4297 6.25H28.6328L27.4219 4.33594L27.0703 3.75H25.3906ZM12.7734 22.5L11.25 28.5938V35H13.75V28.9062L14.7266 25H15.8984C16.3379 25.293 17.8906 26.25 20 26.25H21.25V28.9062L22.5 33.9062V35H25V33.5938L23.75 28.5938V23.75H20C18.6719 23.75 16.9531 22.6953 16.9531 22.6953L16.6406 22.5H12.7734Z" fill="#0C2E5D"/>
</svg>
