<svg width="40" height="40" viewBox="0 0 40 40" fill="none" xmlns="http://www.w3.org/2000/svg">
<path d="M11.875 6.25C6.7041 6.25 2.5 10.5029 2.5 15.625C2.5 17.4121 3.31055 18.96 4.0625 20.0781C4.81445 21.1963 5.58594 21.9141 5.58594 21.9141L19.1016 35.4688L20 36.3672L20.8984 35.4688L34.4141 21.9141C34.4141 21.9141 37.5 19.1943 37.5 15.625C37.5 10.5029 33.2959 6.25 28.125 6.25C23.833 6.25 21.0693 8.83301 20 9.92188C18.9307 8.83301 16.167 6.25 11.875 6.25ZM11.875 8.75C15.6104 8.75 19.0625 12.3828 19.0625 12.3828L20 13.4375L20.9375 12.3828C20.9375 12.3828 24.3896 8.75 28.125 8.75C31.9287 8.75 35 11.8701 35 15.625C35 17.5537 32.6562 20.1562 32.6562 20.1562L20 32.8125L7.34375 20.1562C7.34375 20.1562 6.73828 19.5752 6.13281 18.6719C5.52734 17.7686 5 16.5918 5 15.625C5 11.8701 8.07129 8.75 11.875 8.75Z" fill="#3B0C08"/>
</svg>
