<svg width="16" height="16" viewBox="0 0 16 16" fill="none" xmlns="http://www.w3.org/2000/svg">
<path d="M8.00004 10.6663C9.4728 10.6663 10.6667 9.47243 10.6667 7.99967C10.6667 6.52692 9.4728 5.33301 8.00004 5.33301C6.52728 5.33301 5.33337 6.52692 5.33337 7.99967C5.33337 9.47243 6.52728 10.6663 8.00004 10.6663Z" stroke="#3F2E1F" stroke-linecap="round" stroke-linejoin="round"/>
<path d="M2 10.6667V5.33333C2 3.49238 3.49239 2 5.33333 2H10.6667C12.5076 2 14 3.49239 14 5.33333V10.6667C14 12.5076 12.5076 14 10.6667 14H5.33333C3.49238 14 2 12.5076 2 10.6667Z" stroke="#3F2E1F"/>
<path d="M11.6666 4.3419L11.6755 4.33202" stroke="#3F2E1F" stroke-linecap="round" stroke-linejoin="round"/>
</svg>
