<svg width="48" height="48" viewBox="0 0 48 48" fill="none" xmlns="http://www.w3.org/2000/svg">
<path d="M19.9219 6C16.2305 6 13.0781 7.17773 10.875 9.28125C8.67188 11.3848 7.5 14.3789 7.5 17.7656C7.5 20.3203 8.47852 22.2891 9.46875 24.0469C10.459 25.8047 11.4551 27.3809 12 29.3438C12.6563 31.7637 13.1133 34.6582 13.875 37.0781C14.2559 38.2852 14.7129 39.3867 15.4219 40.3125C16.1309 41.2383 17.2559 42 18.5625 42C19.8164 42 21.0645 41.3496 21.7031 40.3594C22.3418 39.3691 22.5 38.1973 22.5 36.9375C22.5 35.3906 22.5 32.9766 22.8281 31.0781C22.9922 30.1289 23.2734 29.3379 23.5313 28.9219C23.7891 28.5059 23.8008 28.5 24 28.5C24.1992 28.5 24.2109 28.5 24.4688 28.9219C24.7266 29.3438 25.0078 30.1289 25.1719 31.0781C25.5059 32.9766 25.5 35.3906 25.5 36.9375C25.5 38.1973 25.6582 39.3691 26.2969 40.3594C26.9355 41.3496 28.1836 42 29.4375 42C30.75 42 31.875 41.2441 32.5781 40.3125C33.2813 39.3809 33.7441 38.2441 34.125 37.0312C34.8867 34.6055 35.3496 31.7227 36 29.3438C36.5449 27.3809 37.541 25.8047 38.5313 24.0469C39.5215 22.2891 40.5 20.3203 40.5 17.7656C40.5762 10.957 35.3906 6 28.5938 6C26.6191 6 24.2871 6.73242 23.9063 6.84375C22.6875 6.36328 21.3574 6 19.9219 6ZM19.9219 9C23.3965 9 27.375 12.6562 27.375 12.6562L29.4844 10.5C29.4844 10.5 28.4941 9.7207 27.7969 9.14062C28.1133 9.09375 28.3887 9 28.5938 9C34.0254 9 37.5586 12.3574 37.5 17.7188V17.7656C37.5 19.582 36.8789 20.9531 35.9531 22.5938C35.0273 24.2344 33.7793 26.0684 33.0938 28.5469C32.3789 31.1543 31.9219 34.043 31.2656 36.1406C30.9375 37.1895 30.5332 38.0332 30.1875 38.4844C29.8418 38.9355 29.7305 39 29.4375 39C28.9805 39 28.9805 38.9531 28.8281 38.7188C28.6758 38.4844 28.5 37.8633 28.5 36.9375C28.5 35.4082 28.5293 32.8711 28.125 30.5625C27.9199 29.4082 27.6387 28.2949 27.0469 27.3281C26.4551 26.3613 25.3242 25.5 24 25.5C22.6758 25.5 21.5449 26.3613 20.9531 27.3281C20.3613 28.2949 20.0742 29.4082 19.875 30.5625C19.4707 32.8711 19.5 35.4082 19.5 36.9375C19.5 37.8633 19.3242 38.4844 19.1719 38.7188C19.0195 38.9531 19.0195 39 18.5625 39C18.2637 39 18.1523 38.9297 17.8125 38.4844C17.4727 38.0391 17.0625 37.2305 16.7344 36.1875C16.0781 34.1016 15.6211 31.1836 14.9063 28.5469C14.2207 26.0684 12.9727 24.2344 12.0469 22.5938C11.1211 20.9531 10.5 19.5879 10.5 17.7656C10.5 15.0645 11.4082 12.9375 12.9844 11.4375C14.5605 9.9375 16.8457 9 19.9219 9Z" fill="#563B09"/>
</svg>
