<svg width="52" height="52" viewBox="0 0 52 52" fill="none" xmlns="http://www.w3.org/2000/svg">
<circle cx="26" cy="26" r="26" fill="#FDCB6E"/>
<path d="M29.6562 14.3124C28.8828 14.4062 28.1953 14.953 27.9688 15.7499L25.3125 25.0624L21.9688 26.0312C21.7305 24.3358 20.2578 22.9999 18.5 22.9999C16.5781 22.9999 15 24.578 15 26.4999C15 28.4218 16.5781 29.9999 18.5 29.9999C19.7891 29.9999 20.9258 29.2694 21.5312 28.2187L24.6562 27.3437L23.7812 30.4687C22.7305 31.0741 22 32.2108 22 33.4999C22 35.4218 23.5781 36.9999 25.5 36.9999C27.4219 36.9999 29 35.4218 29 33.4999C29 31.7421 27.6641 30.2694 25.9688 30.0312L30.4375 14.3749C30.1719 14.3007 29.9141 14.2812 29.6562 14.3124ZM37.625 21.5624L28.9062 24.0312L28.25 26.3124L36.25 24.0312C37.3125 23.7265 37.9297 22.6249 37.625 21.5624ZM18.5 24.9999C19.3398 24.9999 20 25.6601 20 26.4999C20 27.3398 19.3398 27.9999 18.5 27.9999C17.6602 27.9999 17 27.3398 17 26.4999C17 25.6601 17.6602 24.9999 18.5 24.9999ZM25.5 31.9999C26.3398 31.9999 27 32.6601 27 33.4999C27 34.3398 26.3398 34.9999 25.5 34.9999C24.6602 34.9999 24 34.3398 24 33.4999C24 32.6601 24.6602 31.9999 25.5 31.9999Z" fill="#3B0C08"/>
</svg>
