<svg width="16" height="16" viewBox="0 0 16 16" fill="none" xmlns="http://www.w3.org/2000/svg">
<path d="M9.33333 7.99967L7 9.33301V6.66634L9.33333 7.99967Z" fill="#3F2E1F" stroke="#3F2E1F" stroke-linecap="round" stroke-linejoin="round"/>
<path d="M1.33337 8.47168V7.52826C1.33337 5.59804 1.33337 4.63293 1.93704 4.01195C2.5407 3.39097 3.49108 3.36409 5.39184 3.31033C6.29253 3.28485 7.21259 3.2666 8.00004 3.2666C8.78749 3.2666 9.70755 3.28485 10.6082 3.31033C12.509 3.36409 13.4594 3.39097 14.063 4.01195C14.6667 4.63293 14.6667 5.59804 14.6667 7.52826V8.47168C14.6667 10.4019 14.6667 11.367 14.0631 11.9879C13.4594 12.6089 12.509 12.6358 10.6083 12.6896C9.7076 12.7151 8.78751 12.7333 8.00004 12.7333C7.21257 12.7333 6.29249 12.7151 5.39177 12.6896C3.49105 12.6358 2.54069 12.6089 1.93703 11.9879C1.33337 11.367 1.33337 10.4019 1.33337 8.47168Z" stroke="#3F2E1F"/>
</svg>
